<svg xmlns="http://www.w3.org/2000/svg" viewBox="0 0 320 320" width="320" height="320">
<rect x="0" y="0" width="40" height="40" fill="#f1e3c8"/>
<rect x="40" y="0" width="40" height="40" fill="#8b5a2b"/>
<circle cx="60.0" cy="20.0" r="14.399999999999999" fill="#2b2b2b" stroke="#111" stroke-width="2"/>
<rect x="80" y="0" width="40" height="40" fill="#f1e3c8"/>
<rect x="120" y="0" width="40" height="40" fill="#8b5a2b"/>
<circle cx="140.0" cy="20.0" r="14.399999999999999" fill="#2b2b2b" stroke="#111" stroke-width="2"/>
<rect x="160" y="0" width="40" height="40" fill="#f1e3c8"/>
<rect x="200" y="0" width="40" height="40" fill="#8b5a2b"/>
<circle cx="220.0" cy="20.0" r="14.399999999999999" fill="#2b2b2b" stroke="#111" stroke-width="2"/>
<rect x="240" y="0" width="40" height="40" fill="#f1e3c8"/>
<rect x="280" y="0" width="40" height="40" fill="#8b5a2b"/>
<circle cx="300.0" cy="20.0" r="14.399999999999999" fill="#2b2b2b" stroke="#111" stroke-width="2"/>
<rect x="0" y="40" width="40" height="40" fill="#8b5a2b"/>
<circle cx="20.0" cy="60.0" r="14.399999999999999" fill="#2b2b2b" stroke="#111" stroke-width="2"/>
<rect x="40" y="40" width="40" height="40" fill="#f1e3c8"/>
<rect x="80" y="40" width="40" height="40" fill="#8b5a2b"/>
<circle cx="100.0" cy="60.0" r="14.399999999999999" fill="#2b2b2b" stroke="#111" stroke-width="2"/>
<rect x="120" y="40" width="40" height="40" fill="#f1e3c8"/>
<rect x="160" y="40" width="40" height="40" fill="#8b5a2b"/>
<circle cx="180.0" cy="60.0" r="14.399999999999999" fill="#2b2b2b" stroke="#111" stroke-width="2"/>
<rect x="200" y="40" width="40" height="40" fill="#f1e3c8"/>
<rect x="240" y="40" width="40" height="40" fill="#8b5a2b"/>
<circle cx="260.0" cy="60.0" r="14.399999999999999" fill="#2b2b2b" stroke="#111" stroke-width="2"/>
<rect x="280" y="40" width="40" height="40" fill="#f1e3c8"/>
<rect x="0" y="80" width="40" height="40" fill="#f1e3c8"/>
<rect x="40" y="80" width="40" height="40" fill="#8b5a2b"/>
<circle cx="60.0" cy="100.0" r="14.399999999999999" fill="#2b2b2b" stroke="#111" stroke-width="2"/>
<rect x="80" y="80" width="40" height="40" fill="#f1e3c8"/>
<rect x="120" y="80" width="40" height="40" fill="#8b5a2b"/>
<circle cx="140.0" cy="100.0" r="14.399999999999999" fill="#2b2b2b" stroke="#111" stroke-width="2"/>
<rect x="160" y="80" width="40" height="40" fill="#f1e3c8"/>
<rect x="200" y="80" width="40" height="40" fill="#8b5a2b"/>
<circle cx="220.0" cy="100.0" r="14.399999999999999" fill="#2b2b2b" stroke="#111" stroke-width="2"/>
<rect x="240" y="80" width="40" height="40" fill="#f1e3c8"/>
<rect x="280" y="80" width="40" height="40" fill="#8b5a2b"/>
<circle cx="300.0" cy="100.0" r="14.399999999999999" fill="#2b2b2b" stroke="#111" stroke-width="2"/>
<rect x="0" y="120" width="40" height="40" fill="#8b5a2b"/>
<rect x="40" y="120" width="40" height="40" fill="#f1e3c8"/>
<rect x="80" y="120" width="40" height="40" fill="#8b5a2b"/>
<rect x="120" y="120" width="40" height="40" fill="#f1e3c8"/>
<rect x="160" y="120" width="40" height="40" fill="#8b5a2b"/>
<rect x="200" y="120" width="40" height="40" fill="#f1e3c8"/>
<rect x="240" y="120" width="40" height="40" fill="#8b5a2b"/>
<rect x="280" y="120" width="40" height="40" fill="#f1e3c8"/>
<rect x="0" y="160" width="40" height="40" fill="#f1e3c8"/>
<rect x="40" y="160" width="40" height="40" fill="#8b5a2b"/>
<rect x="80" y="160" width="40" height="40" fill="#f1e3c8"/>
<rect x="120" y="160" width="40" height="40" fill="#8b5a2b"/>
<rect x="160" y="160" width="40" height="40" fill="#f1e3c8"/>
<rect x="200" y="160" width="40" height="40" fill="#8b5a2b"/>
<rect x="240" y="160" width="40" height="40" fill="#f1e3c8"/>
<rect x="280" y="160" width="40" height="40" fill="#8b5a2b"/>
<rect x="0" y="200" width="40" height="40" fill="#8b5a2b"/>
<circle cx="20.0" cy="220.0" r="14.399999999999999" fill="#c93a3a" stroke="#7a1f1f" stroke-width="2"/>
<rect x="40" y="200" width="40" height="40" fill="#f1e3c8"/>
<rect x="80" y="200" width="40" height="40" fill="#8b5a2b"/>
<circle cx="100.0" cy="220.0" r="14.399999999999999" fill="#c93a3a" stroke="#7a1f1f" stroke-width="2"/>
<rect x="120" y="200" width="40" height="40" fill="#f1e3c8"/>
<rect x="160" y="200" width="40" height="40" fill="#8b5a2b"/>
<circle cx="180.0" cy="220.0" r="14.399999999999999" fill="#c93a3a" stroke="#7a1f1f" stroke-width="2"/>
<rect x="200" y="200" width="40" height="40" fill="#f1e3c8"/>
<rect x="240" y="200" width="40" height="40" fill="#8b5a2b"/>
<circle cx="260.0" cy="220.0" r="14.399999999999999" fill="#c93a3a" stroke="#7a1f1f" stroke-width="2"/>
<rect x="280" y="200" width="40" height="40" fill="#f1e3c8"/>
<rect x="0" y="240" width="40" height="40" fill="#f1e3c8"/>
<rect x="40" y="240" width="40" height="40" fill="#8b5a2b"/>
<circle cx="60.0" cy="260.0" r="14.399999999999999" fill="#c93a3a" stroke="#7a1f1f" stroke-width="2"/>
<rect x="80" y="240" width="40" height="40" fill="#f1e3c8"/>
<rect x="120" y="240" width="40" height="40" fill="#8b5a2b"/>
<circle cx="140.0" cy="260.0" r="14.399999999999999" fill="#c93a3a" stroke="#7a1f1f" stroke-width="2"/>
<rect x="160" y="240" width="40" height="40" fill="#f1e3c8"/>
<rect x="200" y="240" width="40" height="40" fill="#8b5a2b"/>
<circle cx="220.0" cy="260.0" r="14.399999999999999" fill="#c93a3a" stroke="#7a1f1f" stroke-width="2"/>
<rect x="240" y="240" width="40" height="40" fill="#f1e3c8"/>
<rect x="280" y="240" width="40" height="40" fill="#8b5a2b"/>
<circle cx="300.0" cy="260.0" r="14.399999999999999" fill="#c93a3a" stroke="#7a1f1f" stroke-width="2"/>
<rect x="0" y="280" width="40" height="40" fill="#8b5a2b"/>
<circle cx="20.0" cy="300.0" r="14.399999999999999" fill="#c93a3a" stroke="#7a1f1f" stroke-width="2"/>
<rect x="40" y="280" width="40" height="40" fill="#f1e3c8"/>
<rect x="80" y="280" width="40" height="40" fill="#8b5a2b"/>
<circle cx="100.0" cy="300.0" r="14.399999999999999" fill="#c93a3a" stroke="#7a1f1f" stroke-width="2"/>
<rect x="120" y="280" width="40" height="40" fill="#f1e3c8"/>
<rect x="160" y="280" width="40" height="40" fill="#8b5a2b"/>
<circle cx="180.0" cy="300.0" r="14.399999999999999" fill="#c93a3a" stroke="#7a1f1f" stroke-width="2"/>
<rect x="200" y="280" width="40" height="40" fill="#f1e3c8"/>
<rect x="240" y="280" width="40" height="40" fill="#8b5a2b"/>
<circle cx="260.0" cy="300.0" r="14.399999999999999" fill="#c93a3a" stroke="#7a1f1f" stroke-width="2"/>
<rect x="280" y="280" width="40" height="40" fill="#f1e3c8"/>
</svg>